<svg xmlns="http://www.w3.org/2000/svg" width="16" height="19" viewBox="0 0 16 19">
  <defs>
    <linearGradient id="shape_3-a" x1="100%" x2="0%" y1="0%" y2="100%">
      <stop offset="0%" stop-color="#6090FF"/>
      <stop offset="100%" stop-color="#2260F3"/>
    </linearGradient>
  </defs>
  <path fill="url(#shape_3-a)" d="M4.09375,0.0220137286 C3.980469,0.0411445183 3.855469,0.0755811151 3.75,0.14445235 C3.332031,0.416113285 3.230469,0.974739004 3.5,1.39944822 L4.40625,2.86871167 C3.746094,3.53829812 3.277344,4.39154251 3.09375,5.34809375 C3.035156,5.62358064 3,5.92585123 3,6.2663834 L13,6.2663834 C13,5.92585123 12.964844,5.62358064 12.90625,5.34809375 C12.722656,4.39154251 12.253906,3.54212409 11.59375,2.86871167 L12.5,1.39944822 C12.769531,0.974739004 12.667969,0.416113285 12.25,0.14445235 C11.832031,-0.127208586 11.269531,-0.00476996466 11,0.419939247 L10.09375,1.82798339 C9.449219,1.5333657 8.757813,1.36883856 8,1.36883856 C7.242188,1.36883856 6.550781,1.5333657 5.90625,1.82798339 L5,0.419939247 C4.800781,0.102363829 4.4375,-0.039205582 4.09375,0.0220137286 Z M1,7.24589237 C0.449219,7.24589237 0,7.68590641 0,8.22540134 L0,13.1229462 C0,13.6624411 0.449219,14.1024552 1,14.1024552 C1.550781,14.1024552 2,13.6624411 2,13.1229462 L2,8.22540134 C2,7.68590641 1.550781,7.24589237 1,7.24589237 Z M3,7.24589237 L3,14.1024552 C3,14.6419501 3.449219,15.0819641 4,15.0819641 L4,18.020491 C4,18.559986 4.449219,19 5,19 C5.550781,19 6,18.559986 6,18.020491 L6,15.0819641 L10,15.0819641 L10,18.020491 C10,18.559986 10.449219,19 11,19 C11.550781,19 12,18.559986 12,18.020491 L12,15.0819641 C12.550781,15.0819641 13,14.6419501 13,14.1024552 L13,7.24589237 L3,7.24589237 Z M15,7.24589237 C14.449219,7.24589237 14,7.68590641 14,8.22540134 L14,13.1229462 C14,13.6624411 14.449219,14.1024552 15,14.1024552 C15.550781,14.1024552 16,13.6624411 16,13.1229462 L16,8.22540134 C16,7.68590641 15.550781,7.24589237 15,7.24589237 Z"/>
</svg>
