<svg xmlns="http://www.w3.org/2000/svg" width="58" height="37" viewBox="0 0 58 37">
  <defs>
    <linearGradient id="chatbot_icon-a" x1="100%" x2="0%" y1="24.414%" y2="100%">
      <stop offset="0%" stop-color="#6090FF"/>
      <stop offset="100%" stop-color="#2260F3"/>
    </linearGradient>
  </defs>
  <g fill="none" fill-rule="evenodd">
    <g transform="translate(0 9)">
      <path stroke="#9FBCFF" stroke-width="1.2" d="M13.3636364,7.73809524 L13.3636364,1.19047619"/>
      <path fill="#9FBCFF" fill-rule="nonzero" d="M12.4864894,4.58960773 C11.6138214,4.23899503 11,3.3823301 11,2.38095238 C11,1.06547619 12.0577273,0 13.3636364,0 C13.9430316,0 14.470898,0.212816123 14.884681,0.560894114 C14.8948738,0.568744096 14.9047147,0.576817031 14.9141818,0.585119048 C15.4123182,1.02142857 15.7272727,1.66369048 15.7272727,2.37797619 C15.7272727,3.6952381 14.6683636,4.76190476 13.3665909,4.76190476 C13.0794091,4.76190476 12.8040455,4.71011905 12.5493636,4.61607143 C12.5278887,4.60811651 12.5069348,4.59927983 12.4864894,4.58960773 Z"/>
      <rect width="21" height="13" x="3" y="6" fill="url(#chatbot_icon-a)" rx="2"/>
      <rect width="2" height="7" y="9" fill="#9FBCFF" rx="1"/>
      <rect width="2" height="7" x="25" y="9" fill="#9FBCFF" rx="1"/>
      <rect width="2" height="7" x="9" y="9" fill="#FFF" rx="1"/>
      <rect width="2" height="7" x="16" y="9" fill="#FFF" rx="1"/>
      <path fill="url(#chatbot_icon-a)" d="M6.5,21 L20.5,21 C22.4329966,21 24,22.5670034 24,24.5 L24,26 C24,27.1045695 23.1045695,28 22,28 L5,28 C3.8954305,28 3,27.1045695 3,26 L3,24.5 C3,22.5670034 4.56700338,21 6.5,21 Z"/>
    </g>
    <g transform="matrix(-1 0 0 1 58 0)">
      <path fill="#D9E4FF" d="M4,0.4 L24,0.4 C26.209139,0.4 28,2.190861 28,4.4 L28,19.4 C28,21.609139 26.209139,23.4 24,23.4 L9,23.4 L4,27.4 L4,23.4 L4,23.4 C1.790861,23.4 7.37596886e-15,21.609139 7.10542736e-15,19.4 L0,4.4 C-1.25159629e-15,2.190861 1.790861,0.4 4,0.4 Z" transform="matrix(-1 0 0 1 28 0)"/>
      <path fill="#FFF" d="M7,14 C5.8954305,14 5,13.1045695 5,12 C5,10.8954305 5.8954305,10 7,10 C8.1045695,10 9,10.8954305 9,12 C9,13.1045695 8.1045695,14 7,14 Z M14,14 C12.8954305,14 12,13.1045695 12,12 C12,10.8954305 12.8954305,10 14,10 C15.1045695,10 16,10.8954305 16,12 C16,13.1045695 15.1045695,14 14,14 Z M21,14 C19.8954305,14 19,13.1045695 19,12 C19,10.8954305 19.8954305,10 21,10 C22.1045695,10 23,10.8954305 23,12 C23,13.1045695 22.1045695,14 21,14 Z"/>
    </g>
  </g>
</svg>
