<svg xmlns="http://www.w3.org/2000/svg" width="25" height="25" viewBox="0 0 25 25">
  <path fill="#484E6F" fill-rule="evenodd" d="M24.4264053,6.01565789 C24.6000787,5.43026316 24.4264053,5 23.5992591,5 L20.8642456,5 C20.1687708,5 19.8481881,5.37164474 19.6743194,5.78138158 C19.6743194,5.78138158 18.2835651,9.20651316 16.3131832,11.43125 C15.6757297,12.0752632 15.3860136,12.2801316 15.0382762,12.2801316 C14.8644075,12.2801316 14.6127863,12.0752632 14.6127863,11.4898684 L14.6127863,6.01565789 C14.6127863,5.31302632 14.4109813,5 13.8313538,5 L9.53347553,5 C9.09880375,5 8.8374146,5.32605263 8.8374146,5.63513158 C8.8374146,6.30105263 9.82260553,6.45480263 9.92419174,8.32822368 L9.92419174,12.3973684 C9.92419174,13.2894737 9.76477953,13.4513158 9.4170421,13.4513158 C8.48987253,13.4513158 6.23446321,10.0107895 4.89684626,6.07427632 C4.63467569,5.30907895 4.37172368,5 3.67273238,5 L0.937718905,5 C0.156286484,5 0,5.37164474 0,5.78138158 C0,6.51322368 0.927169567,10.1432237 4.31721877,14.9442105 C6.57731668,18.2226974 9.7616538,20 12.6592052,20 C14.397697,20 14.6127863,19.6052632 14.6127863,18.9253289 L14.6127863,16.4473684 C14.6127863,15.6578947 14.7774731,15.5003947 15.3279923,15.5003947 C15.7335557,15.5003947 16.4290306,15.7052632 18.051675,17.2859868 C19.9062095,19.1596053 20.2119449,20 21.2549618,20 L23.9899753,20 C24.7714077,20 25.1621239,19.6052632 24.9366807,18.82625 C24.6901388,18.0498026 23.8045805,16.9234211 22.6298922,15.5882237 C21.9924387,14.8269737 21.0361608,14.0075 20.7464447,13.5975658 C20.3406859,13.0705921 20.4567286,12.8363158 20.7464447,12.3679605 C20.7464447,12.3679605 24.0786679,7.62578947 24.4264053,6.01565789"/>
</svg>
