<svg xmlns="http://www.w3.org/2000/svg" width="16" height="18" viewBox="0 0 16 18">
  <defs>
    <linearGradient id="shape_2-a" x1="100%" x2="0%" y1="28.505%" y2="100%">
      <stop offset="0%" stop-color="#6090FF"/>
      <stop offset="100%" stop-color="#2260F3"/>
    </linearGradient>
  </defs>
  <path fill="url(#shape_2-a)" d="M16,13.199219 C15.5891079,14.101563 15.3796333,14.601563 14.7632937,15.398438 C13.9374804,16.601563 12.9062206,18 11.4640688,18 C10.2233343,18 9.91717909,17.199219 8.26555157,17.199219 C6.61392507,17.199219 6.30776982,18 5.06703539,18 C3.72962034,18 2.69836055,16.699219 1.87254628,15.5 C-0.294710113,12.300781 -0.500156658,8.5 0.841286485,6.5 C1.76780947,5.101563 3.31469916,4.199219 4.76088014,4.199219 C6.20303198,4.199219 7.12955497,5 8.26555157,5 C9.4015492,5 10.1226246,4.199219 11.770224,4.199219 C13.0109585,4.199219 14.3483735,4.898438 15.3796333,6 C12.2858539,7.699219 12.8014838,12 16,13.199219 Z M10.6382545,2.898438 C11.2545941,2.101563 11.6695143,1.101563 11.5647775,0 C10.5335177,0.101563 9.4015492,0.699219 8.67644466,1.5 C8.06010502,2.199219 7.54447513,3.300781 7.74992167,4.398438 C8.78118146,4.398438 9.91717909,3.699219 10.6382545,2.898438 Z"/>
</svg>
