<svg xmlns="http://www.w3.org/2000/svg" width="46" height="45" viewBox="0 0 46 45">
  <defs>
    <linearGradient id="gmchat_logo-a" x1="-24.632%" x2="145.014%" y1="29.975%" y2="100%">
      <stop offset="0%" stop-color="#6090FF"/>
      <stop offset="100%" stop-color="#2260F3"/>
    </linearGradient>
    <linearGradient id="gmchat_logo-b" x1="16.915%" y1="69.42%" y2="41.009%">
      <stop offset="0%" stop-color="#6090FF"/>
      <stop offset="100%" stop-color="#2260F3"/>
    </linearGradient>
    <linearGradient id="gmchat_logo-c" x1="95.485%" x2="-15.581%" y1="76.844%" y2="32.169%">
      <stop offset="0%" stop-color="#6090FF"/>
      <stop offset="100%" stop-color="#2260F3"/>
    </linearGradient>
  </defs>
  <g fill="none" fill-rule="evenodd">
    <path fill="url(#gmchat_logo-a)" d="M23.7636465,13.6152094 C20.0125845,11.6402359 15.5737198,14.355668 14.3328218,20.0325174 C13.0919238,25.7093667 17.8227385,35.4938364 29.4871795,33.025641 C34.2025918,28.0892503 34.9816378,24.2140139 33.1944711,19.2920588 C31.7053936,32.1266746 14.5810014,23.4879909 23.5154669,14.8493071 C24.0118261,14.355668 24.1794872,13.862029 23.7636465,13.6152094 Z"/>
    <path fill="url(#gmchat_logo-b)" d="M45.9858998,22.1661979 C45.9858998,21.9153533 45.2278905,21.4136642 44.7225509,21.9153533 C40.6798345,31.6982909 33.557726,35.811747 28.2990153,36.4643373 C14.1495076,38.2202492 3.28470713,20.410286 16.4235356,11.1290376 C9.94306584,8.4922932 0.644918232,16.512 0,23.6712652 C0.963569843,31.3241391 6.2907576,41.2570636 17.7332362,44.1228105 C34.6001395,48.3470941 46.4667689,32.4301987 45.9858998,22.1661979 Z"/>
    <path fill="url(#gmchat_logo-c)" d="M29.4871795,33.025641 C32.4396086,29.3565412 33.5811591,24.853555 32.9118312,19.5166825 C31.9078392,11.5113738 22.1102788,8.04238333 15.3333333,11.7948718 C15.3333333,11.7948718 6.30604509,14.2631987 0.0310955372,24.0196687 C-0.721898409,8.25921713 12.3299967,-1.74741878 25.1308937,0.2539084 C37.9317908,2.25523558 41.9477585,13.0123692 41.1947646,18.265853 C40.5254366,25.77083 36.6229083,30.6907593 29.4871795,33.025641 Z"/>
  </g>
</svg>
