<svg xmlns="http://www.w3.org/2000/svg" width="60" height="39" viewBox="0 0 60 39">
  <defs>
    <linearGradient id="messages_icon-a" x1="0%" y1="0%" y2="78.712%">
      <stop offset="0%" stop-color="#6090FF"/>
      <stop offset="100%" stop-color="#2260F3"/>
    </linearGradient>
    <linearGradient id="messages_icon-b" x1="100%" x2="0%" y1="50%" y2="100%">
      <stop offset="0%" stop-color="#6090FF"/>
      <stop offset="100%" stop-color="#2260F3"/>
    </linearGradient>
  </defs>
  <g fill="none" fill-rule="evenodd">
    <g transform="translate(32)">
      <path fill="url(#messages_icon-a)" d="M4,0.4 L24,0.4 C26.209139,0.4 28,2.190861 28,4.4 L28,19.4 C28,21.609139 26.209139,23.4 24,23.4 L9,23.4 L4,27.4 L4,23.4 L4,23.4 C1.790861,23.4 7.37596886e-15,21.609139 7.10542736e-15,19.4 L0,4.4 C-1.25159629e-15,2.190861 1.790861,0.4 4,0.4 Z" transform="matrix(-1 0 0 1 28 0)"/>
      <path fill="#FFF" d="M7,14 C5.8954305,14 5,13.1045695 5,12 C5,10.8954305 5.8954305,10 7,10 C8.1045695,10 9,10.8954305 9,12 C9,13.1045695 8.1045695,14 7,14 Z M14,14 C12.8954305,14 12,13.1045695 12,12 C12,10.8954305 12.8954305,10 14,10 C15.1045695,10 16,10.8954305 16,12 C16,13.1045695 15.1045695,14 14,14 Z M21,14 C19.8954305,14 19,13.1045695 19,12 C19,10.8954305 19.8954305,10 21,10 C22.1045695,10 23,10.8954305 23,12 C23,13.1045695 22.1045695,14 21,14 Z"/>
    </g>
    <g transform="translate(0 12)">
      <path fill="#D9E4FF" d="M4,0 L24,-2.66453526e-15 C26.209139,-3.07034751e-15 28,1.790861 28,4 L28,19 C28,21.209139 26.209139,23 24,23 L9,23 L4,27 L4,23 L4,23 C1.790861,23 7.37596886e-15,21.209139 7.10542736e-15,19 L0,4 C-1.25159629e-15,1.790861 1.790861,-9.26455379e-16 4,-1.33226763e-15 Z"/>
      <path fill="url(#messages_icon-b)" fill-rule="nonzero" d="M10.6759124,10.0258462 L10.6759124,16.8417181 C10.6759124,16.8417181 13.9064268,17.4 15.8558857,17.4 L18.7923675,17.4 C19.4724113,17.4 20.1218225,16.8516321 20.2382264,16.1855355 C20.2382264,16.1855355 21.2484896,12.1945327 20.9421636,10.6454709 C20.3563218,9.71603379 17.3250254,9.71603379 14.6581509,9.71603379 C14.9040286,9.13523888 15.0361572,8.42556203 15.0545368,7.58700324 C15.0821061,6.32916504 13.2165806,5.70954032 12.6039285,7.58700324 C12.1954938,8.83864518 11.5528218,9.65159282 10.6759124,10.0258462 Z M7,10.1177483 L8.81060829,10.1177483 C9.16407053,10.1177483 9.45060829,10.4042861 9.45060829,10.7577483 L9.45060829,16.2017181 C9.45060829,16.5551804 9.16407053,16.8417181 8.81060829,16.8417181 L7,16.8417181 L7,10.1177483 Z"/>
    </g>
  </g>
</svg>
