<svg xmlns="http://www.w3.org/2000/svg" width="14" height="20" viewBox="0 0 14 20">
  <defs>
    <linearGradient id="shape_4-a" x1="100%" x2="0%" y1="0%" y2="100%">
      <stop offset="0%" stop-color="#6090FF"/>
      <stop offset="100%" stop-color="#2260F3"/>
    </linearGradient>
  </defs>
  <path fill="url(#shape_4-a)" d="M3.61932706e-14,2 L2.89546165e-13,16 L2.89546165e-13,18 C2.89546165e-13,18.523438 0.183594,19.058594 0.5625,19.4375 C0.941406,19.816406 1.476563,20 2,20 L12,20 C12.523438,20 13.058594,19.816406 13.4375,19.4375 C13.816406,19.058594 14,18.523438 14,18 L14,2 C14,1.476563 13.816406,0.941406 13.4375,0.5625 C13.058594,0.183594 12.523438,3.61932706e-14 12,3.61932706e-14 L2,-3.61932706e-14 C0.8954305,-3.99145836e-14 -2.20625591e-15,0.8954305 -5.99520433e-15,2 Z M2,2 L12,2 L12,18 L2,18 L2,2 Z M5.5,15 L5.5,17 L8.5,17 L8.5,15 L5.5,15 Z"/>
</svg>
