<svg xmlns="http://www.w3.org/2000/svg" width="40" height="37" viewBox="0 0 40 37">
  <defs>
    <linearGradient id="moderation_icon-a" x1="100%" x2="0%" y1="0%" y2="100%">
      <stop offset="0%" stop-color="#6090FF"/>
      <stop offset="100%" stop-color="#2260F3"/>
    </linearGradient>
  </defs>
  <g fill="none">
    <path fill="url(#moderation_icon-a)" d="M18.504902,28.8125308 C18.7576588,27.9897461 18.8955265,27.1210386 18.8955265,26.2140625 C18.8955265,25.3070864 18.7576588,24.4307256 18.504902,23.6079409 L18.6887255,23.5007876 L20.1439951,22.0963135 L18.6734069,19.5514224 L16.7279412,20.1063232 L16.5326284,20.2211309 C15.3454343,18.946771 13.7905941,18.0206606 12.0327814,17.6226626 L12.0327814,17.396875 L11.5425853,15.4375 L8.60140882,15.4375 L8.11121275,17.396875 L8.11121275,17.6226626 C6.3534,18.0244873 4.7985598,18.946771 3.61136569,20.2211309 L3.41222353,20.1063232 L1.47058824,19.5514224 L0,22.0963135 L1.45143922,23.5007876 L1.63909314,23.6117676 C1.38633529,24.4307256 1.24846765,25.3070864 1.24846765,26.2140625 C1.24846765,27.1210386 1.38633529,27.9897461 1.63909314,28.8125308 L1.45526961,28.9196841 L0,30.3241582 L1.47058824,32.8690493 L3.41605392,32.3141484 L3.60753627,32.2031675 C4.79473039,33.4775273 6.34957059,34.4036377 8.11121275,34.8054624 L8.11121275,35.0235967 L8.60140882,36.9829717 L11.5425853,36.9829717 L12.0327814,35.0235967 L12.0327814,34.8054624 C13.7944235,34.4036377 15.3492647,33.4775273 16.5364578,32.2031675 L16.7317706,32.3141484 L18.6734069,32.8690493 L20.1439951,30.3241582 L18.6925549,28.9196841 L18.504902,28.8125308 Z M10.0719971,31.1125 C7.36442941,31.1125 5.17003627,28.9196841 5.17003627,26.2140625 C5.17003627,23.5084409 7.36442941,21.315625 10.0719971,21.315625 C12.7795647,21.315625 14.9739578,23.5084409 14.9739578,26.2140625 C14.9739578,28.9196841 12.7795647,31.1125 10.0719971,31.1125 Z"/>
    <path fill="#83A2EA" d="M37.9503676,23.7651919 C38.1341912,23.0954834 38.2414216,22.3951597 38.2414216,21.671875 C38.2414216,20.9447637 38.1341912,20.2444399 37.9503676,19.5747314 L38.1686578,19.4484438 L39.620098,18.0439697 L38.1495098,15.4990786 L36.2078735,16.0539795 L35.9895833,16.1802671 C35.0091912,15.1814453 33.7607235,14.4505063 32.3590686,14.0907778 L32.3590686,13.834375 L31.8688725,11.875 L28.9276961,11.875 L28.4375,13.834375 L28.4375,14.0907778 C27.0396755,14.4505063 25.7873775,15.1814453 24.8069853,16.1802671 L24.5886951,16.0539795 L22.6470588,15.4990786 L21.1764706,18.0439697 L22.6279108,19.4484438 L22.8500304,19.5747314 C22.6623775,20.2444399 22.5551471,20.9447637 22.5551471,21.671875 C22.5551471,22.3951597 22.6623775,23.0954834 22.846201,23.7651919 L22.6279108,23.8876528 L21.1764706,25.292127 L22.6470588,27.8370181 L24.5886951,27.2821172 L24.8031559,27.1596563 C25.7873775,28.158478 27.0358461,28.889417 28.4375,29.2529722 L28.4375,29.5017217 L28.9276961,31.4610967 L31.8688725,31.4610967 L32.3590686,29.5017217 L32.3590686,29.2529722 C33.7607235,28.889417 35.0091912,28.158478 35.9934127,27.1596563 L36.2078735,27.2821172 L38.1495098,27.8370181 L39.620098,25.292127 L38.1686578,23.8876528 L37.9503676,23.7651919 Z M30.3982843,25.590625 C28.230699,25.590625 26.4767157,23.8379033 26.4767157,21.671875 C26.4767157,19.5058477 28.230699,17.753125 30.3982843,17.753125 C32.5658706,17.753125 34.3198529,19.5058477 34.3198529,21.671875 C34.3198529,23.8379033 32.5658706,25.590625 30.3982843,25.590625 Z"/>
    <path fill="#9FBCFF" d="M23.321282,10.8293763 C23.4737151,10.27403 23.5626344,9.69329642 23.5626344,9.09352282 C23.5626344,8.49057602 23.4737151,7.90984246 23.321282,7.35449614 L23.5022961,7.24977393 L24.7058824,6.0851336 L23.4864178,3.97481858 L21.8763434,4.43496229 L21.6953293,4.5396845 C20.8823529,3.71142565 19.8439025,3.10530483 18.6847762,2.80700504 L18.6847762,2.59438661 L18.2782881,0.969602556 L15.839359,0.969602556 L15.4328708,2.59438661 L15.4328708,2.80700504 C14.2737446,3.10530483 13.2352941,3.71142565 12.4223178,4.5396845 L12.2413037,4.43496229 L10.6312292,3.97481858 L9.41176471,6.0851336 L10.615351,7.24977393 L10.7995405,7.35449614 C10.643932,7.90984246 10.5550127,8.49057602 10.5550127,9.09352282 C10.5550127,9.69329642 10.643932,10.27403 10.7963651,10.8293763 L10.615351,10.9309253 L9.41176471,12.0955656 L10.6312292,14.2058807 L12.2413037,13.7457369 L12.4191423,13.6441879 C13.2352941,14.4724468 14.2705691,15.0785676 15.4328708,15.3800406 L15.4328708,15.5863126 L15.839359,17.2110967 L18.2782881,17.2110967 L18.6847762,15.5863126 L18.6847762,15.3800406 C19.8470788,15.0785676 20.8823529,14.4724468 21.6985048,13.6441879 L21.8763434,13.7457369 L23.4864178,14.2058807 L24.7058824,12.0955656 L23.5022961,10.9309253 L23.321282,10.8293763 Z M17.0588235,12.3430909 C15.261384,12.3430909 13.8069181,10.8896712 13.8069181,9.09352282 C13.8069181,7.29737523 15.261384,5.84395472 17.0588235,5.84395472 C18.8562638,5.84395472 20.3107289,7.29737523 20.3107289,9.09352282 C20.3107289,10.8896712 18.8562638,12.3430909 17.0588235,12.3430909 Z"/>
  </g>
</svg>
