<svg xmlns="http://www.w3.org/2000/svg" width="50" height="49" viewBox="0 0 50 49">
  <defs>
    <linearGradient id="restream_icon-a" x1="100%" x2="0%" y1="0%" y2="100%">
      <stop offset="0%" stop-color="#6090FF"/>
      <stop offset="100%" stop-color="#2260F3"/>
    </linearGradient>
  </defs>
  <g fill="none" transform="translate(0 .5)">
    <path fill="#9FBCFF" d="M24,10.2980756 C21.6046469,9.8323813 19.7965406,7.72556893 19.7965406,5.19697684 C19.7965406,2.32676578 22.1262088,0 25,0 C27.8737912,0 30.2034594,2.32676578 30.2034594,5.19697684 C30.2034594,7.72556893 28.3953531,9.8323813 26,10.2980756 L26,14 L24,14 L24,10.2980756 Z M10.008372,21.1921958 C8.97955307,23.6757944 6.19855044,24.989637 3.60136633,24.1457608 C0.871633408,23.2588168 -0.621345317,20.3241606 0.266705018,17.5910227 C1.15475535,14.8578848 4.08754815,13.3612489 6.81728107,14.2481929 C9.02609439,14.9658799 10.4251388,17.0243132 10.408171,19.2318379 L15.088359,20.0570813 L14.7410627,22.0266968 L10.008372,21.1921958 Z M39.0148824,19.1600966 C39.0283973,16.9798397 40.4209582,14.9580994 42.6058257,14.2481929 C45.3355587,13.3612489 48.2683515,14.8578848 49.1564018,17.5910227 C50.0444521,20.3241606 48.5514734,23.2588168 45.8217405,24.1457608 C43.201315,24.9971886 40.3937664,23.6521073 39.3875374,21.1252406 L34.2751254,22.0266968 L33.9278291,20.0570813 L39.0148824,19.1600966 Z M34.6459614,38.2953798 C36.9223703,36.9837532 39.8668456,37.57371 41.4437537,39.7441378 C43.1308215,42.0661873 42.613719,45.317925 40.288773,47.0070971 C37.9638271,48.6962692 34.7114474,48.1832207 33.0243796,45.8611712 C31.6322672,43.9450927 31.7409751,41.3959893 33.1278248,39.6141497 L30,35.1471529 L31.6383041,34 L34.6459614,38.2953798 Z M16.6105832,39.3039749 C18.2407314,41.0898316 18.4507178,43.8308737 16.9756204,45.8611712 C15.2885526,48.1832207 12.0361729,48.6962692 9.71122698,47.0070971 C7.38628102,45.317925 6.86917854,42.0661873 8.55624627,39.7441378 C10.0535084,37.6833334 12.7836809,37.0473798 15.0042593,38.1111496 L17.8829172,34 L19.5212213,35.1471529 L16.6105832,39.3039749 Z"/>
    <path fill="url(#restream_icon-a)" d="M24.5,33 C29.1938889,33 33,29.1938889 33,24.5 C33,19.8061111 29.1938889,16 24.5,16 C19.8061111,16 16,19.8061111 16,24.5 C16,29.1938889 19.8061111,33 24.5,33 Z"/>
  </g>
</svg>
