<svg xmlns="http://www.w3.org/2000/svg" width="32" height="31" viewBox="0 0 32 31">
  <defs>
    <linearGradient id="stats_icon-a" x1="100%" x2="-11.813%" y1="50%" y2="50%">
      <stop offset="0%" stop-color="#6090FF"/>
      <stop offset="100%" stop-color="#2260F3"/>
    </linearGradient>
  </defs>
  <g fill="none" fill-rule="evenodd">
    <path fill="url(#stats_icon-a)" fill-rule="nonzero" d="M29,0 C27.4937689,0 26.2727273,1.22104159 26.2727273,2.72727273 C26.2728228,2.882603 26.2861882,3.03764117 26.3126777,3.19069609 L20.9375,7.71590909 C20.6374239,7.60451666 20.3200814,7.54681801 20,7.54545455 C19.465751,7.54599296 18.9434253,7.7034316 18.49787,7.99822436 L14.2171532,5.27627827 C14.1299089,3.83797037 12.9388206,2.71571114 11.49787,2.71413345 C9.99163886,2.71413345 8.77059727,3.93517505 8.77059727,5.44140618 C8.77136905,5.50007059 8.77403361,5.55869482 8.77858682,5.61718736 L3.93377127,8.46679636 C3.55881323,8.28044771 3.14598278,8.18293605 2.72727273,8.18181818 C1.22104159,8.18181818 0,9.40285977 0,10.9090909 C0,12.415322 1.22104159,13.6363636 2.72727273,13.6363636 C4.23350386,13.6363636 5.45454545,12.415322 5.45454545,10.9090909 C5.45371666,10.8513149 5.45105195,10.7935799 5.44655536,10.7359732 L10.2913709,7.88370018 C10.6663291,8.07004911 11.0791597,8.16756095 11.49787,8.16867891 C12.032119,8.1681405 12.5544447,8.01070185 13,7.71590909 L17.2807168,10.4378555 C17.3679612,11.8761632 18.5590495,12.9984223 20,13 C21.5062311,13 22.7272727,11.7789584 22.7272727,10.2727273 C22.7271772,10.1173969 22.7138118,9.96235864 22.6873223,9.80930364 L28.0625,5.28409091 C28.3625761,5.39548334 28.6799186,5.45318199 29,5.45454545 C30.5062311,5.45454545 31.7272727,4.23350386 31.7272727,2.72727273 C31.7272727,1.22104159 30.5062311,0 29,0 Z"/>
    <path fill="#9FBCFF" d="M1.57772181e-30,21 C-6.76353751e-17,20.4477153 0.44771525,20 1,20 L3,20 C3.55228475,20 4,20.4477153 4,21 L4,29.9090909 C4,30.4613757 3.55228475,30.9090909 3,30.9090909 L1,30.9090909 C0.44771525,30.9090909 1.04869017e-15,30.4613757 1.57772181e-30,29.9090909 L1.57772181e-30,21 Z M21,19 C21,18.4477153 21.4477153,18 22,18 L24,18 C24.5522847,18 25,18.4477153 25,19 L25,29.9090909 C25,30.4613757 24.5522847,30.9090909 24,30.9090909 L22,30.9090909 C21.4477153,30.9090909 21,30.4613757 21,29.9090909 L21,19 Z M28,12 C28,11.4477153 28.4477153,11 29,11 L31,11 C31.5522847,11 32,11.4477153 32,12 L32,29.9090909 C32,30.4613757 31.5522847,30.9090909 31,30.9090909 L29,30.9090909 C28.4477153,30.9090909 28,30.4613757 28,29.9090909 L28,12 Z M7,17 C7,16.4477153 7.44771525,16 8,16 L10,16 C10.5522847,16 11,16.4477153 11,17 L11,29.9090909 C11,30.4613757 10.5522847,30.9090909 10,30.9090909 L8,30.9090909 C7.44771525,30.9090909 7,30.4613757 7,29.9090909 L7,17 Z M14,23 C14,22.4477153 14.4477153,22 15,22 L17,22 C17.5522847,22 18,22.4477153 18,23 L18,30 C18,30.5522847 17.5522847,31 17,31 L15,31 C14.4477153,31 14,30.5522847 14,30 L14,23 Z"/>
  </g>
</svg>
