<svg xmlns="http://www.w3.org/2000/svg" width="39" height="33" viewBox="0 0 39 33">
  <defs>
    <linearGradient id="themes_icon-a" x1="100%" x2="21.184%" y1="0%" y2="100%">
      <stop offset="0%" stop-color="#6090FF"/>
      <stop offset="100%" stop-color="#2260F3"/>
    </linearGradient>
  </defs>
  <g fill="none" fill-rule="evenodd" transform="matrix(-1 0 0 1 39 0)">
    <path fill="#C5D4F7" fill-rule="nonzero" d="M8.09480658,0.00120454857 C7.77251647,0.0141117481 7.45348245,0.0915549454 7.15398073,0.230307547 C6.53869939,0.514265937 6.07317017,1.02409991 5.84528801,1.66623329 L3.89201591,7.10661831 C4.47474229,6.80007211 5.12908824,6.60969071 5.83226619,6.60969071 L26.5109068,6.60969071 L9.05190949,0.156090943 C8.74264203,0.0399261472 8.41709668,-0.0084760576 8.09480658,0.00120454857 Z M1.66528572,13.3214345 L0.148244808,17.5582225 C-0.31728525,18.8586231 0.350082508,20.3010028 1.63924209,20.7785692 L1.66528572,20.7882498 L1.66528572,13.3214345 Z"/>
    <path fill="#83A2EA" d="M5.83226619,8.26181226 L25.3389435,8.26181226 L5.22675226,15.6737714 C4.44218734,15.9641838 3.79760797,16.4707912 3.33207791,17.1000173 L3.33207791,10.7399946 C3.33207791,9.37505801 4.45520916,8.26181226 5.83226619,8.26181226 Z M3.33207791,22.6307519 L6.18385517,30.5654531 L5.83226619,30.5654531 C4.45520916,30.5654531 3.33207791,29.4522073 3.33207791,28.0872708 L3.33207791,22.6307519 Z"/>
    <path fill="url(#themes_icon-a)" d="M31.8856607,7.81328686 C32.2079508,7.82619406 32.5269848,7.90363726 32.8297418,8.04238986 C33.4450231,8.32634825 33.9105524,8.83618305 34.1416898,9.47508901 L37.8818853,20.1444125 C38.3474145,21.4448122 37.6800467,22.887192 36.3908871,23.3615318 L11.2750632,32.6192204 C10.9950946,32.722478 10.7021034,32.7741068 10.4123683,32.7741068 C10.0542688,32.7741068 9.69942373,32.6966636 9.36736789,32.5417772 C8.75208739,32.2610454 8.28655733,31.7512115 8.05541992,31.1123047 L4.31522528,20.442982 C3.84969522,19.1425815 4.51706298,17.6969751 5.80622256,17.2226353 L30.9220465,7.96494667 C31.23457,7.85200846 31.5601154,7.80037967 31.8856607,7.81328686 Z M31.7847414,9.46218181 C31.6903335,9.46218181 31.5926695,9.48154303 31.5015168,9.51381061 L26.7485547,11.2659632 L31.1951834,23.5131916 L35.8081608,21.8158944 C36.2476472,21.6513274 36.4755293,21.1511741 36.3127563,20.6961947 L32.5660503,10.026872 C32.4879194,9.80744961 32.3316576,9.633202 32.1265639,9.53962501 C32.0158789,9.48799621 31.9019378,9.46218181 31.7847414,9.46218181 Z"/>
  </g>
</svg>
